# xmcd
#
# Track frame offsets:
#	150
#	16630
#	32459
#	47364
#	62386
#	76508
#	92519
#	106679
#	121762
#	136465
#	150206
#	164071
#	177992
#	194204
#
# Disc length: 2772 seconds
#
# Revision: 1
# Processed by: cddbd v1.5.2PL0 Copyright (c) Steve Scherf et al.
# Submitted via: audiograbber 1.83.01
#
DISCID=970ad20e
DTITLE=Various Artist - ich geh für dich durch's feuer
DYEAR=1900
DGENRE=Schlager
TTITLE0=die himmelsboten - ein stern der deinen namen trägt
TTITLE1=marc pircher - ich geh für dich durch's feuer
TTITLE2=kastelruther spatzen - herzenssache
TTITLE3=stefanie hertel and stefan mross - mabofieber
TTITLE4=alpentrio tirol - rot sind die rosen
TTITLE5=nockalm quintett - spiel nie mit dem feuer
TTITLE6=atlantis - halt mi fest (Neuaufnahme)
TTITLE7=judith and mel - alles wird gut
TTITLE8=die zillertaler - zillertaler hochzeitsmarsch
TTITLE9=alpenrebellen - ganz oder gar nicht
TTITLE10=florian silberreisen - weiss-blau klingt's am schönsten
TTITLE11=marianne and michael - das zauberwort heisst liebe
TTITLE12=klostertaler - das ganze leben ist ein schlager
TTITLE13=captain cook und seine singenden saxophone - sierra madre
EXTD=
EXTT0=
EXTT1=
EXTT2=
EXTT3=
EXTT4=
EXTT5=
EXTT6=
EXTT7=
EXTT8=
EXTT9=
EXTT10=
EXTT11=
EXTT12=
EXTT13=
PLAYORDER=
